<?xml version="1.0" encoding="UTF-8"?>
<svg xmlns="http://www.w3.org/2000/svg" width="64" height="64" viewBox="0 0 64 64">
  <defs>
    <linearGradient id="bg" x1="0" y1="0" x2="1" y2="1">
      <stop offset="0%" stop-color="#3b2bd4"/>
      <stop offset="100%" stop-color="#7c3aed"/>
    </linearGradient>
    <linearGradient id="cloud" x1="0" y1="0" x2="1" y2="0">
      <stop offset="0%" stop-color="#a78bfa"/>
      <stop offset="100%" stop-color="#67e8f9"/>
    </linearGradient>
  </defs>
  <rect width="64" height="64" rx="14" fill="url(#bg)"/>
  <path d="M 22 20
           C 30 20 36 25 38 32
           C 42 28 49 28 53 33
           C 58 35 60 40 60 44
           C 60 49 56 52 50 52
           L 14 52
           C 10 52 6 49 6 44
           C 6 39 10 36 15 36
           C 16 26 22 20 22 20 Z"
        fill="url(#cloud)" transform="translate(-2, -2) scale(1.1)"/>
</svg>
